<svg width="635" height="781" viewBox="0 0 635 781" fill="none" xmlns="http://www.w3.org/2000/svg">
<path d="M391.343 217.45C391.343 217.45 443.707 163.65 399.522 101.93C355.337 40.2095 265.344 -18.3305 152.436 5.39953C39.528 29.1295 44.4398 173.14 50.9854 192.13C50.9854 192.13 10.0783 150.99 -40.6522 204.79C-91.3723 258.59 5.16656 385.19 5.16656 385.19C5.16656 385.19 -58.6446 351.96 -66.8342 375.7C-75.0135 399.44 222.793 601.99 280.058 632.049C280.058 632.049 253.876 584.58 306.24 617.81C358.605 651.039 352.059 671.609 432.239 700.099C512.42 728.589 615.504 780.799 631.863 780.799C648.221 780.799 586.044 714.34 550.049 689.02C514.053 663.7 496.051 655.789 496.051 655.789C496.051 655.789 561.506 587.75 505.864 537.109C450.232 486.469 430.595 516.539 430.595 516.539C430.595 516.539 543.503 369.38 378.231 359.88C378.231 359.88 451.266 351.63 440.408 282.34C432.25 230.1 391.343 217.45 391.343 217.45Z" fill="#BB83C3" fill-opacity="0.1"/>
</svg>
