<svg width="173" height="37" viewBox="0 0 173 37" fill="none" xmlns="http://www.w3.org/2000/svg">
<g clip-path="url(#clip0_805_4689)">
<path d="M36 6.55359L35.9388 6.64503L25.2245 21.825L19.1939 30.3599C18.6122 31.1829 17.3571 31.1829 16.7755 30.3599L11.6633 23.1052L10.7755 21.8555L5.05102 13.7473L0.0612245 6.64503L0 6.55359L5.26531 1.3412C6.12245 0.487709 7.28571 0 8.47959 0H27.5204C28.7449 0 29.9082 0.487709 30.7653 1.3412L36 6.55359Z" fill="url(#paint0_linear_805_4689)"/>
<path opacity="0.36" d="M36 6.55359L35.9388 6.64503L25.2245 21.825L19.1939 30.3599C18.6122 31.1829 17.3571 31.1829 16.7755 30.3599L11.6633 23.1052L10.7755 21.8555L5.05102 13.7473L0.0612245 6.64503L0 6.55359L5.26531 1.3412C6.12245 0.487709 7.28571 0 8.47959 0H27.5204C28.7449 0 29.9082 0.487709 30.7653 1.3412L36 6.55359Z" fill="#B66DD6"/>
<path d="M36 6.55359L35.9388 6.64503L25.2245 21.825C22.898 22.0383 20.4796 22.1298 18 22.1298C15.5204 22.1298 13.102 22.0079 10.7755 21.825L5.05102 13.7473L0.0612245 6.64503L0 6.55359L5.26531 1.3412C6.12245 0.487709 7.28571 0 8.47959 0H27.5204C28.7449 0 29.9082 0.487709 30.7653 1.3412L36 6.55359Z" fill="url(#paint1_linear_805_4689)"/>
<path opacity="0.45" d="M0.0615234 6.64551L5.05132 13.7173L8.2656 18.2896C22.6534 14.8756 35.8166 6.76744 35.9391 6.67599C30.8881 8.01719 24.6738 8.80972 18.0003 8.80972C11.3268 8.80972 5.14316 7.98671 0.0615234 6.64551Z" fill="#B66DD6"/>
<path opacity="0.36" d="M35.9387 6.64476L35.9999 6.55332L30.7652 1.34093C30.2142 0.792254 29.5101 0.39599 28.7448 0.182617C23.8775 6.85814 16.3162 15.454 10.6836 21.7028L10.806 21.8552L11.6938 23.1049L16.8367 30.3901C17.4183 31.2131 18.6734 31.2131 19.255 30.3901L25.2856 21.8552L35.9387 6.64476Z" fill="url(#paint2_linear_805_4689)"/>
</g>
<path d="M43.932 11.456V31H54.292V27.892H47.852V11.456H43.932ZM62.3276 18.456C64.3436 18.456 65.9676 19.744 66.0236 21.788H58.6596C58.9676 19.66 60.4516 18.456 62.3276 18.456ZM69.6916 26.128H65.4636C64.9596 27.164 64.0356 28.004 62.3556 28.004C60.3956 28.004 58.8276 26.716 58.6316 24.42H69.9716C70.0556 23.916 70.0836 23.412 70.0836 22.908C70.0836 18.288 66.9196 15.236 62.4396 15.236C57.8476 15.236 54.6556 18.344 54.6556 23.244C54.6556 28.116 57.9316 31.252 62.4396 31.252C66.2756 31.252 68.8516 28.984 69.6916 26.128ZM70.8168 23.188C70.8168 28.032 73.9528 31.252 77.8728 31.252C80.3368 31.252 82.1008 30.076 83.0248 28.732V31H86.9728V15.488H83.0248V17.7C82.1008 16.412 80.3928 15.236 77.9008 15.236C73.9528 15.236 70.8168 18.344 70.8168 23.188ZM83.0248 23.244C83.0248 26.184 81.0648 27.808 78.9088 27.808C76.8088 27.808 74.8208 26.128 74.8208 23.188C74.8208 20.248 76.8088 18.68 78.9088 18.68C81.0648 18.68 83.0248 20.304 83.0248 23.244ZM88.6734 23.188C88.6734 28.032 91.8094 31.252 95.7574 31.252C98.1934 31.252 99.9294 30.132 100.853 28.704V31H104.829V10.28H100.853V17.644C99.7894 16.188 97.8294 15.236 95.7854 15.236C91.8094 15.236 88.6734 18.344 88.6734 23.188ZM100.881 23.244C100.881 26.184 98.9214 27.808 96.7654 27.808C94.6654 27.808 92.6774 26.128 92.6774 23.188C92.6774 20.248 94.6654 18.68 96.7654 18.68C98.9214 18.68 100.881 20.304 100.881 23.244ZM119.83 31H123.75V11.456H119.83V19.492H111.458V11.456H107.538V31H111.458V22.684H119.83V31ZM141.132 15.488H137.184V24.028C137.184 26.52 135.84 27.864 133.712 27.864C131.64 27.864 130.268 26.52 130.268 24.028V15.488H126.348V24.588C126.348 28.844 128.952 31.196 132.564 31.196C134.496 31.196 136.204 30.356 137.184 29.04V31H141.132V15.488ZM147.8 17.756V10.28H143.88V31H147.8V28.788C148.752 30.132 150.488 31.252 152.924 31.252C156.9 31.252 160.008 28.032 160.008 23.188C160.008 18.344 156.9 15.236 152.924 15.236C150.572 15.236 148.752 16.328 147.8 17.756ZM156.004 23.188C156.004 26.128 154.016 27.808 151.888 27.808C149.788 27.808 147.8 26.184 147.8 23.244C147.8 20.304 149.788 18.68 151.888 18.68C154.016 18.68 156.004 20.248 156.004 23.188Z" fill="#3A363E"/>
<defs>
<linearGradient id="paint0_linear_805_4689" x1="13.8387" y1="5.97404" x2="-11.0834" y2="-19.0547" gradientUnits="userSpaceOnUse">
<stop stop-color="#C696DB"/>
<stop offset="1" stop-color="#A36EBA"/>
</linearGradient>
<linearGradient id="paint1_linear_805_4689" x1="29.1706" y1="19.9544" x2="14.1505" y2="4.87005" gradientUnits="userSpaceOnUse">
<stop stop-color="#A36EBA"/>
<stop offset="1" stop-color="#EEC7FF"/>
</linearGradient>
<linearGradient id="paint2_linear_805_4689" x1="28.7483" y1="20.1711" x2="16.8494" y2="9.80292" gradientUnits="userSpaceOnUse">
<stop stop-color="white" stop-opacity="0"/>
<stop offset="1" stop-color="white"/>
</linearGradient>
<clipPath id="clip0_805_4689">
<rect width="36" height="31" fill="white"/>
</clipPath>
</defs>
</svg>
